<svg fill="none" height="329" viewBox="0 0 359 329" width="359" xmlns="http://www.w3.org/2000/svg" xmlns:xlink="http://www.w3.org/1999/xlink"><filter id="a" color-interpolation-filters="sRGB" filterUnits="userSpaceOnUse" height="55" width="55" x="80.1716" y="160.539"><feFlood flood-opacity="0" result="BackgroundImageFix"/><feBlend in="SourceGraphic" in2="BackgroundImageFix" mode="normal" result="shape"/><feGaussianBlur result="effect1_foregroundBlur_3080_9" stdDeviation="7.5"/></filter><filter id="b" color-interpolation-filters="sRGB" filterUnits="userSpaceOnUse" height="13.9144" width="13.9144" x="100.714" y="181.081"><feFlood flood-opacity="0" result="BackgroundImageFix"/><feBlend in="SourceGraphic" in2="BackgroundImageFix" mode="normal" result="shape"/><feGaussianBlur result="effect1_foregroundBlur_3080_9" stdDeviation=".8"/></filter><radialGradient id="c" cx="0" cy="0" gradientTransform="matrix(0 56.1066 -185 0 179.171 164.012)" gradientUnits="userSpaceOnUse" r="1"><stop offset="0" stop-color="#0bf"/><stop offset="1" stop-color="#0bf" stop-opacity="0"/></radialGradient><linearGradient id="d" gradientUnits="userSpaceOnUse" x1="254.172" x2="45.3037" y1="211.106" y2="81.8252"><stop offset="0" stop-color="#f527aa"/><stop offset=".552885" stop-color="#f527aa"/><stop offset=".552985" stop-color="#ececec"/><stop offset="1" stop-color="#ececec"/></linearGradient><ellipse cx="179.171" cy="164.012" fill="url(#c)" fill-opacity=".7" rx="185" ry="56.1066" transform="matrix(.7779274 -.62835417 .62835417 .7779274 -63.268654 149.005415)"/><ellipse cx="179.171" cy="164.012" fill="url(#c)" fill-opacity=".7" rx="185" ry="56.1066" transform="matrix(.7528068 .65824154 -.65824154 .7528068 152.249364 -77.395143)"/><path d="m343.458 274.305-129.791-107.689 129.791-108.0742 12.291-9.6185c-19.59 0-37.259 1.539-52.623 4.6169-15.748 3.0779-28.808 7.3101-39.947 13.0812-10.756 5.7711-82.93 59.2116-82.93 59.2116s-71.79-53.8637-82.5452-59.5963c-10.7551-5.7327-24.1989-10.0033-39.9475-13.0812-15.326-3.078-32.995-4.6169-52.58467-4.6169l12.29157 9.6185 129.7908 108.0739-129.7908 107.689-12.29157 9.619c19.58967 0 37.25867-1.539 52.62307-4.617 15.7486-3.078 28.8083-7.31 39.9475-13.082 10.7548-5.771 82.9298-58.865 82.9298-58.865s71.79 53.094 82.929 58.865c10.755 5.772 24.199 10.004 39.948 13.082 15.364 3.078 33.033 4.617 52.623 4.617l-12.676-9.234z" fill="#0bf" fill-opacity=".1"/><path d="m181.304 71.6821c10.159 9.9716 42.038 29.9459 87.932 29.9459h.5v.5c0 28.85-8.516 67.205-23.827 100.172-15.299 32.941-37.454 60.657-64.825 67.992l-.63.167v-.14l-.63-.169c-27.372-7.334-49.527-35.049-64.825-67.99-15.3109-32.968-23.8273-71.322-23.8274-100.172v-.5h.5c45.8964 0 77.7744-19.8353 87.9314-29.8059l.851-.8349z" fill="#fff" fill-opacity=".1"/><path d="m181.304 71.6821c10.159 9.9716 42.038 29.9459 87.932 29.9459h.5v.5c0 28.85-8.516 67.205-23.827 100.172-15.299 32.941-37.454 60.657-64.825 67.992l-.63.167v-.14l-.63-.169c-27.372-7.334-49.527-35.049-64.825-67.99-15.3109-32.968-23.8273-71.322-23.8274-100.172v-.5h.5c45.8964 0 77.7744-19.8353 87.9314-29.8059l.851-.8349z" fill="#f527aa" fill-opacity=".2"/><path d="m181.304 71.6821-.7.7137zm88.432 29.9459h1v-1h-1zm-23.827 100.672.907.422zm-64.825 67.992.257.966.002-.001zm-.63.167h-1v1.302l1.258-.335zm0-.14h1v-.767l-.741-.199zm-.63-.169.259-.966zm-64.825-67.99-.907.421zm-23.8274-100.172h-1zm0-.5v-1h-1v1zm88.4314-29.8059-.7-.7136zm.851-.8349.7-.7137-.7-.6876-.701.6876zm.85.8349-.7.7137c10.338 10.1483 42.466 30.2322 88.632 30.2322v-1-1c-45.623 0-77.253-19.8646-87.231-29.6595zm87.932 29.9459v1h.5v-1-1h-.5zm.5 0h-1v.5h1 1v-.5zm0 .5h-1c0 28.689-8.478 66.9-23.734 99.751l.907.421.907.422c15.365-33.085 23.92-71.582 23.92-100.594zm-23.827 100.172-.907-.421c-15.269 32.877-37.254 60.232-64.177 67.447l.259.966.259.965c27.82-7.454 50.145-35.53 65.473-68.535zm-64.825 67.992-.258-.967-.63.168.258.966.258.967.629-.168zm-.63.167h1v-.14h-1-1v.14zm0-.14.259-.966-.63-.169-.259.966-.259.966.63.169zm-.63-.169.259-.966c-26.923-7.214-48.909-34.569-64.177-67.446l-.907.422-.907.421c15.328 33.005 37.653 61.08 65.473 68.535zm-64.825-67.99.907-.422c-15.257-32.85-23.7343-71.062-23.7344-99.75h-1-1c.0001 29.011 8.5553 67.509 23.9204 100.593zm-23.8274-100.172h1v-.5h-1-1v.5zm0-.5v1h.5v-1-1h-.5zm.5 0v1c46.1644 0 78.2934-19.943 88.6324-30.0922l-.701-.7137-.7-.7136c-9.975 9.7918-41.604 29.5195-87.2314 29.5195zm87.9314-29.8059.701.7137.85-.835-.7-.7136-.701-.7137-.85.835zm.851-.8349-.701.7136.851.835.7-.7137.701-.7136-.851-.835z" fill="url(#d)"/><path d="m160.689 135.539 7.344-16.8h5.568l7.344 16.8h-5.856l-5.424-14.112h2.208l-5.424 14.112zm4.368-2.928 1.44-4.08h7.728l1.44 4.08zm16.432 2.928v-3.48l9.36-10.896.696 1.968h-9.816v-4.392h14.808v3.48l-9.36 10.896-.696-1.968h10.44v4.392zm5.424-18.168-3.072-3.84h3.36l3.408 3.12h-2.784l3.408-3.12h3.36l-3.072 3.84z" fill="#f527aa"/><path d="m121.789 179.539v-7.5l14.85-21.5h12.1l-14.3 21.5-5.5-1.65h27.1v9.15zm18.15 6v-6l.35-9.15v-5.35h11.1v20.5zm34.096.8c-3.1 0-5.85-.717-8.25-2.15-2.367-1.434-4.233-3.517-5.6-6.25-1.333-2.734-2-6.034-2-9.9 0-3.867.667-7.167 2-9.9 1.367-2.734 3.233-4.817 5.6-6.25 2.4-1.434 5.15-2.15 8.25-2.15s5.833.716 8.2 2.15c2.4 1.433 4.267 3.516 5.6 6.25 1.367 2.733 2.05 6.033 2.05 9.9 0 3.866-.683 7.166-2.05 9.9-1.333 2.733-3.2 4.816-5.6 6.25-2.367 1.433-5.1 2.15-8.2 2.15zm0-9.45c.767 0 1.45-.267 2.05-.8.6-.534 1.067-1.45 1.4-2.75.367-1.3.55-3.067.55-5.3 0-2.267-.183-4.034-.55-5.3-.333-1.3-.8-2.217-1.4-2.75-.6-.534-1.283-.8-2.05-.8s-1.45.266-2.05.8c-.6.533-1.083 1.45-1.45 2.75-.333 1.266-.5 3.033-.5 5.3 0 2.233.167 4 .5 5.3.367 1.3.85 2.216 1.45 2.75.6.533 1.283.8 2.05.8zm24.569 8.65 23.9-35h8.45l-23.9 35zm3.35-16c-1.766 0-3.35-.367-4.75-1.1-1.4-.767-2.516-1.884-3.35-3.35-.8-1.467-1.2-3.234-1.2-5.3 0-2.067.4-3.817 1.2-5.25.834-1.467 1.95-2.584 3.35-3.35 1.4-.767 2.984-1.15 4.75-1.15 1.767 0 3.35.383 4.75 1.15 1.4.766 2.5 1.883 3.3 3.35.834 1.433 1.25 3.183 1.25 5.25 0 2.066-.416 3.833-1.25 5.3-.8 1.466-1.9 2.583-3.3 3.35-1.4.733-2.983 1.1-4.75 1.1zm0-5.4c.567 0 1.067-.3 1.5-.9.467-.634.7-1.784.7-3.45 0-1.667-.233-2.8-.7-3.4-.433-.634-.933-.95-1.5-.95-.533 0-1.033.316-1.5.95-.466.6-.7 1.733-.7 3.4 0 1.666.234 2.816.7 3.45.467.6.967.9 1.5.9zm25.65 21.9c-1.766 0-3.35-.367-4.75-1.1-1.4-.767-2.516-1.884-3.35-3.35-.8-1.467-1.2-3.234-1.2-5.3 0-2.067.4-3.817 1.2-5.25.834-1.467 1.95-2.584 3.35-3.35 1.4-.767 2.984-1.15 4.75-1.15 1.767 0 3.35.383 4.75 1.15 1.4.766 2.5 1.883 3.3 3.35.834 1.433 1.25 3.183 1.25 5.25 0 2.066-.416 3.833-1.25 5.3-.8 1.466-1.9 2.583-3.3 3.35-1.4.733-2.983 1.1-4.75 1.1zm0-5.4c.567 0 1.067-.3 1.5-.9.467-.634.7-1.784.7-3.45 0-1.667-.233-2.8-.7-3.4-.433-.634-.933-.95-1.5-.95-.533 0-1.033.316-1.5.95-.466.6-.7 1.733-.7 3.4 0 1.666.234 2.816.7 3.45.467.6.967.9 1.5.9z" fill="#ececec"/><g filter="url(#a)"><circle cx="107.672" cy="188.039" fill="#f527aa" r="12.5"/></g><g filter="url(#b)"><circle cx="107.672" cy="188.039" fill="#f527aa" r="5.35714"/></g></svg>