<svg width="20" height="21" viewBox="0 0 20 21" fill="none" xmlns="http://www.w3.org/2000/svg">
<mask id="mask0_713_17284" style="mask-type:alpha" maskUnits="userSpaceOnUse" x="-2" y="-2" width="24" height="25">
<rect x="-2" y="-1.97498" width="24" height="24" fill="#D9D9D9"/>
</mask>
<g mask="url(#mask0_713_17284)">
<path d="M10 20.025C8.61667 20.025 7.31667 19.7625 6.1 19.2375C4.88333 18.7125 3.825 18 2.925 17.1C2.025 16.2 1.3125 15.1417 0.7875 13.925C0.2625 12.7083 0 11.4083 0 10.025C0 8.775 0.241667 7.55 0.725 6.35C1.20833 5.15 1.88333 4.07917 2.75 3.1375C3.61667 2.19583 4.65833 1.4375 5.875 0.8625C7.09167 0.2875 8.425 0 9.875 0C10.225 0 10.5833 0.0166667 10.95 0.05C11.3167 0.0833333 11.6917 0.141667 12.075 0.225C11.925 0.975 11.975 1.68333 12.225 2.35C12.475 3.01667 12.85 3.57083 13.35 4.0125C13.85 4.45417 14.4458 4.75833 15.1375 4.925C15.8292 5.09167 16.5417 5.05 17.275 4.8C16.8417 5.78333 16.9042 6.725 17.4625 7.625C18.0208 8.525 18.85 8.99167 19.95 9.025C19.9667 9.20833 19.9792 9.37917 19.9875 9.5375C19.9958 9.69583 20 9.86667 20 10.05C20 11.4167 19.7375 12.7042 19.2125 13.9125C18.6875 15.1208 17.975 16.1792 17.075 17.0875C16.175 17.9958 15.1167 18.7125 13.9 19.2375C12.6833 19.7625 11.3833 20.025 10 20.025ZM8.5 8.025C8.91667 8.025 9.27083 7.87917 9.5625 7.5875C9.85417 7.29583 10 6.94167 10 6.525C10 6.10833 9.85417 5.75417 9.5625 5.4625C9.27083 5.17083 8.91667 5.025 8.5 5.025C8.08333 5.025 7.72917 5.17083 7.4375 5.4625C7.14583 5.75417 7 6.10833 7 6.525C7 6.94167 7.14583 7.29583 7.4375 7.5875C7.72917 7.87917 8.08333 8.025 8.5 8.025ZM6.5 13.025C6.91667 13.025 7.27083 12.8792 7.5625 12.5875C7.85417 12.2958 8 11.9417 8 11.525C8 11.1083 7.85417 10.7542 7.5625 10.4625C7.27083 10.1708 6.91667 10.025 6.5 10.025C6.08333 10.025 5.72917 10.1708 5.4375 10.4625C5.14583 10.7542 5 11.1083 5 11.525C5 11.9417 5.14583 12.2958 5.4375 12.5875C5.72917 12.8792 6.08333 13.025 6.5 13.025ZM13 14.025C13.2833 14.025 13.5208 13.9292 13.7125 13.7375C13.9042 13.5458 14 13.3083 14 13.025C14 12.7417 13.9042 12.5042 13.7125 12.3125C13.5208 12.1208 13.2833 12.025 13 12.025C12.7167 12.025 12.4792 12.1208 12.2875 12.3125C12.0958 12.5042 12 12.7417 12 13.025C12 13.3083 12.0958 13.5458 12.2875 13.7375C12.4792 13.9292 12.7167 14.025 13 14.025ZM10 18.025C12.0333 18.025 13.8375 17.325 15.4125 15.925C16.9875 14.525 17.85 12.7417 18 10.575C17.1667 10.2083 16.5125 9.70833 16.0375 9.075C15.5625 8.44167 15.2417 7.73333 15.075 6.95C13.7917 6.76667 12.6917 6.21667 11.775 5.3C10.8583 4.38333 10.2917 3.28333 10.075 2C8.74167 1.96667 7.57083 2.20833 6.5625 2.725C5.55417 3.24167 4.7125 3.90417 4.0375 4.7125C3.3625 5.52083 2.85417 6.4 2.5125 7.35C2.17083 8.3 2 9.19167 2 10.025C2 12.2417 2.77917 14.1292 4.3375 15.6875C5.89583 17.2458 7.78333 18.025 10 18.025Z" fill="#F527AA"/>
</g>
</svg>
