<svg fill="none" height="24" viewBox="0 0 24 24" width="24" xmlns="http://www.w3.org/2000/svg"><path clip-rule="evenodd" d="m4.5 3.24268c-.82843 0-1.5.67157-1.5 1.5v15.00002c0 .8284.67157 1.5 1.5 1.5h15c.8284 0 1.5-.6716 1.5-1.5v-15.00002c0-.82843-.6716-1.5-1.5-1.5zm4.02076 4.00272c.00563.95625-.71015 1.54547-1.55953 1.54125-.80016-.00422-1.49766-.64125-1.49344-1.53984.00422-.84516.67219-1.52438 1.53985-1.50469.88031.01969 1.51875.66516 1.51312 1.50328zm3.75894 2.759h-2.51999-.00141v8.5599h2.6634v-.1997c0-.3799-.0003-.7599-.0006-1.14-.0008-1.0138-.0017-2.0287.0035-3.0422.0014-.2461.0126-.502.0759-.7369.2376-.8775 1.0266-1.4442 1.9069-1.3049.5653.0885.9393.4162 1.0968.9492.0971.3332.1407.6918.1449 1.0392.0114 1.0476.0098 2.0952.0082 3.1429-.0006.3698-.0012.7398-.0012 1.1096v.1814h2.6719v-.2053c0-.452-.0002-.9039-.0005-1.3558-.0005-1.1295-.0011-2.259.0019-3.3889.0014-.5105-.0534-1.0139-.1786-1.5075-.187-.7341-.5737-1.3416-1.2023-1.7803-.4458-.3122-.9352-.51332-1.4822-.53582-.0623-.00259-.1251-.00598-.1882-.00939-.2797-.01512-.564-.03048-.8314.02345-.765.15328-1.4371.50346-1.9448 1.12076-.059.0708-.1167.1427-.2028.25l-.0194.0243zm-6.59806 8.5627h2.65078v-8.5571h-2.65078z" fill="#fff" fill-rule="evenodd"/></svg>