<svg fill="none" height="24" viewBox="0 0 24 24" width="24" xmlns="http://www.w3.org/2000/svg"><path clip-rule="evenodd" d="m16 3.24268h-8c-2.76142 0-5 2.23858-5 5v8.00002c0 2.7614 2.23858 5 5 5h8c2.7614 0 5-2.2386 5-5v-8.00002c0-2.76142-2.2386-5-5-5zm3.25 13.00002c-.0055 1.7926-1.4574 3.2445-3.25 3.25h-8c-1.79265-.0055-3.24451-1.4574-3.25-3.25v-8.00002c.00549-1.79265 1.45735-3.24451 3.25-3.25h8c1.7926.00549 3.2445 1.45735 3.25 3.25zm-2.5-7.75002c.5523 0 1-.44772 1-1s-.4477-1-1-1-1 .44772-1 1 .4477 1 1 1zm-4.75-.75c-2.48528 0-4.5 2.01472-4.5 4.50002s2.01472 4.5 4.5 4.5c2.4853 0 4.5-2.0147 4.5-4.5.0027-1.1943-.4706-2.34045-1.3151-3.18494s-1.9906-1.31774-3.1849-1.31508zm-2.75 4.50002c0 1.5188 1.2312 2.75 2.75 2.75s2.75-1.2312 2.75-2.75-1.2312-2.75002-2.75-2.75002-2.75 1.23122-2.75 2.75002z" fill="#fff" fill-rule="evenodd"/></svg>