<svg fill="none" height="52" viewBox="0 0 52 52" width="52" xmlns="http://www.w3.org/2000/svg" xmlns:xlink="http://www.w3.org/1999/xlink"><mask id="a" height="52" maskUnits="userSpaceOnUse" width="52" x="0" y="0"><path d="m0 0h52v52h-52z" fill="#d9d9d9"/></mask><g mask="url(#a)"><path d="m8.66634 43.3337c-1.19167 0-2.2118-.4243-3.06042-1.273-.84861-.8486-1.27291-1.8687-1.27291-3.0604v-26c0-1.1916.4243-2.2118 1.27291-3.06039.84862-.84861 1.86875-1.27292 3.06042-1.27292h34.66666c1.1917 0 2.2118.42431 3.0604 1.27292.8486.84859 1.2729 1.86879 1.2729 3.06039v26c0 1.1917-.4243 2.2118-1.2729 3.0604-.8486.8487-1.8687 1.273-3.0604 1.273zm17.33336-15.1667-17.33336-10.8333v21.6666h34.66666v-21.6666zm0-4.3333 17.3333-10.8334h-34.66666zm-17.33336-6.5v-4.3334 26z" fill="#0bf"/></g></svg>