<svg fill="none" height="52" viewBox="0 0 52 52" width="52" xmlns="http://www.w3.org/2000/svg" xmlns:xlink="http://www.w3.org/1999/xlink"><mask id="a" height="52" maskUnits="userSpaceOnUse" width="52" x="0" y="0"><path d="m0 0h52v52h-52z" fill="#d9d9d9"/></mask><g mask="url(#a)"><path d="m43.225 45.5c-4.5139 0-8.9736-.984-13.3792-2.9521-4.4055-1.968-8.4139-4.7576-12.025-8.3687s-6.4007-7.6195-8.36872-12.025c-1.96805-4.4056-2.95208-8.8653-2.95208-13.3792 0-.65.21667-1.19167.65-1.625s.975-.65 1.625-.65h8.775c.5056 0 .9569.17153 1.3542.51458.3972.34306.6319.74931.7041 1.21875l1.4084 7.58337c.0722.5777.0541 1.0652-.0542 1.4625-.1083.3972-.3069.7402-.5958 1.0291l-5.2542 5.3084c.7222 1.3361 1.5799 2.6271 2.5729 3.8729.9931 1.2458 2.0854 2.4465 3.2771 3.6021 1.1194 1.1194 2.2931 2.1576 3.5208 3.1146 1.2278.9569 2.5278 1.8326 3.9 2.627l5.0917-5.0916c.325-.325.7493-.5688 1.2729-.7313s1.0382-.2076 1.5438-.1354l7.475 1.5167c.5055.1444.9208.4062 1.2458.7854s.4875.8035.4875 1.2729v8.775c0 .65-.2167 1.1917-.65 1.625s-.975.65-1.625.65zm-30.1708-26 3.575-3.575-.9209-5.0917h-4.8208c.1806 1.4806.4333 2.9431.7583 4.3875.325 1.4445.7945 2.8709 1.4084 4.2792zm19.3916 19.3917c1.4084.6139 2.8438 1.1014 4.3063 1.4625s2.934.5958 4.4146.7041v-4.7666l-5.0917-1.0292z" fill="#0bf"/></g></svg>