<svg fill="none" height="52" viewBox="0 0 52 52" width="52" xmlns="http://www.w3.org/2000/svg" xmlns:xlink="http://www.w3.org/1999/xlink"><mask id="a" height="52" maskUnits="userSpaceOnUse" width="52" x="0" y="0"><path d="m0 0h52v52h-52z" fill="#d9d9d9"/></mask><g mask="url(#a)"><path d="m25.9997 35.6955c3.575-2.8889 6.2743-5.6694 8.0979-8.3417 1.8236-2.6722 2.7354-5.1819 2.7354-7.5291 0-3.25-1.0111-5.9222-3.0333-8.0167-2.0222-2.09444-4.6222-3.14166-7.8-3.14166s-5.7778 1.04722-7.8 3.14166c-2.0222 2.0945-3.0334 4.7667-3.0334 8.0167 0 2.3472.9118 4.8569 2.7355 7.5291 1.8236 2.6723 4.5229 5.4528 8.0979 8.3417zm0 5.4708c-5.0917-3.7555-8.8924-7.4027-11.4021-10.9416s-3.7646-7.0056-3.7646-10.4c0-4.5139 1.4083-8.2243 4.225-11.13128 2.8167-2.90694 6.4639-4.36041 10.9417-4.36041s8.125 1.45347 10.9416 4.36041c2.8167 2.90698 4.225 6.61738 4.225 11.13128 0 3.3944-1.2548 6.8611-3.7645 10.4-2.5098 3.5389-6.3105 7.1861-11.4021 10.9416zm0-17.3333c1.1916 0 2.2118-.4243 3.0604-1.2729s1.2729-1.8688 1.2729-3.0604c0-1.1917-.4243-2.2118-1.2729-3.0604-.8486-.8487-1.8688-1.273-3.0604-1.273-1.1917 0-2.2118.4243-3.0604 1.273-.8487.8486-1.273 1.8687-1.273 3.0604 0 1.1916.4243 2.2118 1.273 3.0604.8486.8486 1.8687 1.2729 3.0604 1.2729zm-15.1667 23.8333v-4.3333h30.3333v4.3333z" fill="#0bf"/></g></svg>