<svg fill="none" height="18" viewBox="0 0 18 18" width="18" xmlns="http://www.w3.org/2000/svg"><path d="m16.6 18-6.3-6.3c-.5.4-1.075.7167-1.725.95s-1.34167.35-2.075.35c-1.81667 0-3.35417-.6292-4.6125-1.8875-1.258333-1.25833-1.8875-2.79583-1.8875-4.6125s.629167-3.35417 1.8875-4.6125c1.25833-1.258333 2.79583-1.8875 4.6125-1.8875s3.35417.629167 4.6125 1.8875c1.2583 1.25833 1.8875 2.79583 1.8875 4.6125 0 .73333-.1167 1.425-.35 2.075s-.55 1.225-.95 1.725l6.3 6.3zm-10.1-7c1.25 0 2.3125-.4375 3.1875-1.3125s1.3125-1.9375 1.3125-3.1875-.4375-2.3125-1.3125-3.1875-1.9375-1.3125-3.1875-1.3125-2.3125.4375-3.1875 1.3125-1.3125 1.9375-1.3125 3.1875.4375 2.3125 1.3125 3.1875 1.9375 1.3125 3.1875 1.3125z" fill="#fff"/></svg>