<svg fill="none" height="24" viewBox="0 0 24 24" width="24" xmlns="http://www.w3.org/2000/svg" xmlns:xlink="http://www.w3.org/1999/xlink"><mask id="a" height="24" maskUnits="userSpaceOnUse" width="24" x="0" y="0"><path d="m0 0h24v24h-24z" fill="#d9d9d9"/></mask><g mask="url(#a)"><path d="m7.2875 13.7125c-.19167-.1917-.2875-.4292-.2875-.7125s.09583-.5208.2875-.7125.42917-.2875.7125-.2875.52083.0958.7125.2875.2875.4292.2875.7125-.09583.5208-.2875.7125-.42917.2875-.7125.2875-.52083-.0958-.7125-.2875zm4 0c-.1917-.1917-.2875-.4292-.2875-.7125s.0958-.5208.2875-.7125.4292-.2875.7125-.2875.5208.0958.7125.2875.2875.4292.2875.7125-.0958.5208-.2875.7125-.4292.2875-.7125.2875-.5208-.0958-.7125-.2875zm4 0c-.1917-.1917-.2875-.4292-.2875-.7125s.0958-.5208.2875-.7125.4292-.2875.7125-.2875.5208.0958.7125.2875.2875.4292.2875.7125-.0958.5208-.2875.7125-.4292.2875-.7125.2875-.5208-.0958-.7125-.2875zm-10.2875 8.2875c-.55 0-1.02083-.1958-1.4125-.5875s-.5875-.8625-.5875-1.4125v-14c0-.55.19583-1.02083.5875-1.4125s.8625-.5875 1.4125-.5875h1v-2h2v2h8v-2h2v2h1c.55 0 1.0208.19583 1.4125.5875s.5875.8625.5875 1.4125v14c0 .55-.1958 1.0208-.5875 1.4125s-.8625.5875-1.4125.5875zm0-2h14v-10h-14zm0-12h14v-2h-14z" fill="#0bf"/></g></svg>