<svg fill="none" height="24" viewBox="0 0 24 24" width="24" xmlns="http://www.w3.org/2000/svg" xmlns:xlink="http://www.w3.org/1999/xlink"><mask id="a" height="24" maskUnits="userSpaceOnUse" width="24" x="0" y="0"><path d="m0 0h24v24h-24z" fill="#d9d9d9"/></mask><g mask="url(#a)"><path d="m8.48711 21.2875c-1.09167-.475-2.04167-1.1167-2.85-1.925-.80833-.8084-1.45-1.7584-1.925-2.85-.475-1.0917-.7125-2.2625-.7125-3.5125s.2375-2.4209.7125-3.51252c.475-1.09167 1.11667-2.04167 1.925-2.85.80833-.80834 1.75833-1.45 2.85-1.925s2.26249-.7125 3.51249-.7125 2.4208.2375 3.5125.7125 2.0417 1.11666 2.85 1.925c.8083.80833 1.45 1.75833 1.925 2.85.475 1.09162.7125 2.26252.7125 3.51252s-.2375 2.4208-.7125 3.5125c-.475 1.0916-1.1167 2.0416-1.925 2.85-.8083.8083-1.7583 1.45-2.85 1.925s-2.2625.7125-3.5125.7125-2.42082-.2375-3.51249-.7125zm6.31249-4.0875 1.4-1.4-3.2-3.2v-4.60002h-2v5.40002zm-9.19999-14.85002 1.4 1.4-4.25 4.25-1.4-1.4zm12.79999 0 4.25 4.25-1.4 1.4-4.25-4.25zm-6.4 17.65002c1.95 0 3.6042-.6792 4.9625-2.0375 1.3583-1.3584 2.0375-3.0125 2.0375-4.9625s-.6792-3.60419-2.0375-4.96252c-1.3583-1.35834-3.0125-2.0375-4.9625-2.0375s-3.60416.67916-4.96249 2.0375c-1.35833 1.35833-2.0375 3.01252-2.0375 4.96252s.67917 3.6041 2.0375 4.9625c1.35833 1.3583 3.01249 2.0375 4.96249 2.0375z" fill="#0bf"/></g></svg>