<svg fill="none" height="24" viewBox="0 0 24 24" width="24" xmlns="http://www.w3.org/2000/svg" xmlns:xlink="http://www.w3.org/1999/xlink"><mask id="a" height="24" maskUnits="userSpaceOnUse" width="24" x="0" y="0"><path d="m0 0h24v24h-24z" fill="#d9d9d9"/></mask><g mask="url(#a)"><path d="m8.125 21.2125c-1.21667-.525-2.27917-1.2417-3.1875-2.15s-1.625-1.9708-2.15-3.1875-.7875-2.5125-.7875-3.8875.2625-2.66667.7875-3.875 1.24167-2.26667 2.15-3.175 1.97083-1.625 3.1875-2.15 2.5125-.7875 3.8875-.7875 2.6667.2625 3.875.7875 2.2667 1.24167 3.175 2.15 1.625 1.96667 2.15 3.175.7875 2.5.7875 3.875-.2625 2.6708-.7875 3.8875-1.2417 2.2792-2.15 3.1875-1.9667 1.625-3.175 2.15-2.5.7875-3.875.7875-2.67083-.2625-3.8875-.7875zm3.875-1.2625c.4333-.6.8083-1.225 1.125-1.875s.575-1.3417.775-2.075h-3.8c.2.7333.4583 1.425.775 2.075s.6917 1.275 1.125 1.875zm-2.6-.4c-.3-.55-.5625-1.1208-.7875-1.7125s-.4125-1.2042-.5625-1.8375h-2.95c.48333.8333 1.0875 1.5583 1.8125 2.175s1.55417 1.075 2.4875 1.375zm5.2 0c.9333-.3 1.7625-.7583 2.4875-1.375s1.3292-1.3417 1.8125-2.175h-2.95c-.15.6333-.3375 1.2458-.5625 1.8375s-.4875 1.1625-.7875 1.7125zm-10.35-5.55h3.4c-.05-.3333-.0875-.6625-.1125-.9875s-.0375-.6625-.0375-1.0125.0125-.6875.0375-1.0125.0625-.6542.1125-.9875h-3.4c-.08333.3333-.14583.6625-.1875.9875s-.0625.6625-.0625 1.0125.02083.6875.0625 1.0125.10417.6542.1875.9875zm5.4 0h4.7c.05-.3333.0875-.6625.1125-.9875s.0375-.6625.0375-1.0125-.0125-.6875-.0375-1.0125-.0625-.6542-.1125-.9875h-4.7c-.05.3333-.0875.6625-.1125.9875s-.0375.6625-.0375 1.0125.0125.6875.0375 1.0125.0625.6542.1125.9875zm6.7 0h3.4c.0833-.3333.1458-.6625.1875-.9875s.0625-.6625.0625-1.0125-.0208-.6875-.0625-1.0125-.1042-.6542-.1875-.9875h-3.4c.05.3333.0875.6625.1125.9875s.0375.6625.0375 1.0125-.0125.6875-.0375 1.0125-.0625.6542-.1125.9875zm-.4-6h2.95c-.4833-.83333-1.0875-1.55833-1.8125-2.175s-1.5542-1.075-2.4875-1.375c.3.55.5625 1.12083.7875 1.7125s.4125 1.20417.5625 1.8375zm-5.85 0h3.8c-.2-.73333-.4583-1.425-.775-2.075s-.6917-1.275-1.125-1.875c-.4333.6-.8083 1.225-1.125 1.875s-.575 1.34167-.775 2.075zm-5 0h2.95c.15-.63333.3375-1.24583.5625-1.8375s.4875-1.1625.7875-1.7125c-.93333.3-1.7625.75833-2.4875 1.375s-1.32917 1.34167-1.8125 2.175z" fill="#0bf"/></g></svg>